<svg width="317" height="100" viewBox="0 0 317 100" fill="none" xmlns="http://www.w3.org/2000/svg">
<circle cx="50" cy="50" r="43.5" stroke="#E8E7EA" stroke-width="13"/>
<path d="M50.1396 6.50022C58.2646 6.5263 66.2198 8.8274 73.1041 13.1428C79.9883 17.4582 85.5263 23.6154 89.0907 30.9169C92.6551 38.2183 94.1033 46.372 93.2713 54.4543C92.4394 62.5366 89.3604 70.2243 84.3833 76.6465C79.4063 83.0687 72.73 87.9686 65.111 90.791C57.492 93.6135 49.2348 94.2457 41.2749 92.616C33.3151 90.9863 25.9707 87.1599 20.074 81.5703C14.1772 75.9807 9.96382 68.8513 7.91112 60.9898" stroke="#6B1629" stroke-width="13" stroke-linecap="round"/>
<rect x="124" y="24" width="16" height="8" rx="4" fill="#E8E7EA"/>
<path d="M153.519 35H151.593V22.076H153.519V35ZM157.855 27.125C158.053 26.915 158.26 26.723 158.476 26.549C158.692 26.375 158.92 26.228 159.16 26.108C159.406 25.982 159.667 25.886 159.943 25.82C160.225 25.748 160.525 25.712 160.843 25.712C161.347 25.712 161.788 25.796 162.166 25.964C162.55 26.132 162.871 26.369 163.129 26.675C163.387 26.975 163.582 27.338 163.714 27.764C163.846 28.19 163.912 28.661 163.912 29.177V35H162.148V29.177C162.148 28.523 161.998 28.016 161.698 27.656C161.398 27.29 160.939 27.107 160.321 27.107C159.871 27.107 159.448 27.215 159.052 27.431C158.662 27.641 158.299 27.929 157.963 28.295V35H156.208V25.856H157.261C157.507 25.856 157.66 25.973 157.72 26.207L157.855 27.125ZM168.116 25.856V35H166.361V25.856H168.116ZM168.449 23.03C168.449 23.192 168.416 23.348 168.35 23.498C168.284 23.642 168.194 23.771 168.08 23.885C167.972 23.993 167.843 24.08 167.693 24.146C167.543 24.206 167.387 24.236 167.225 24.236C167.063 24.236 166.91 24.206 166.766 24.146C166.622 24.08 166.493 23.993 166.379 23.885C166.271 23.771 166.184 23.642 166.118 23.498C166.058 23.348 166.028 23.192 166.028 23.03C166.028 22.862 166.058 22.706 166.118 22.562C166.184 22.412 166.271 22.283 166.379 22.175C166.493 22.061 166.622 21.974 166.766 21.914C166.91 21.848 167.063 21.815 167.225 21.815C167.387 21.815 167.543 21.848 167.693 21.914C167.843 21.974 167.972 22.061 168.08 22.175C168.194 22.283 168.284 22.412 168.35 22.562C168.416 22.706 168.449 22.862 168.449 23.03ZM179.324 35H177.56V27.278H172.97V32.633C172.97 32.993 173.057 33.263 173.231 33.443C173.411 33.617 173.639 33.704 173.915 33.704C174.077 33.704 174.215 33.683 174.329 33.641C174.449 33.599 174.551 33.554 174.635 33.506C174.719 33.452 174.791 33.404 174.851 33.362C174.911 33.32 174.965 33.299 175.013 33.299C175.073 33.299 175.118 33.314 175.148 33.344C175.184 33.368 175.22 33.41 175.256 33.47L175.778 34.316C175.49 34.58 175.148 34.784 174.752 34.928C174.356 35.072 173.945 35.144 173.519 35.144C172.781 35.144 172.211 34.937 171.809 34.523C171.413 34.109 171.215 33.518 171.215 32.75V27.278H170.153C170.051 27.278 169.964 27.248 169.892 27.188C169.826 27.122 169.793 27.026 169.793 26.9V26.189L171.287 25.982L171.674 23.255C171.698 23.153 171.743 23.075 171.809 23.021C171.881 22.961 171.971 22.931 172.079 22.931H172.97V26H179.324V35ZM179.72 22.976C179.72 23.138 179.687 23.294 179.621 23.444C179.555 23.588 179.465 23.717 179.351 23.831C179.243 23.939 179.114 24.026 178.964 24.092C178.814 24.152 178.658 24.182 178.496 24.182C178.334 24.182 178.181 24.152 178.037 24.092C177.893 24.026 177.764 23.939 177.65 23.831C177.542 23.717 177.455 23.588 177.389 23.444C177.329 23.294 177.299 23.138 177.299 22.976C177.299 22.808 177.329 22.649 177.389 22.499C177.455 22.349 177.542 22.22 177.65 22.112C177.764 21.998 177.893 21.911 178.037 21.851C178.181 21.785 178.334 21.752 178.496 21.752C178.658 21.752 178.814 21.785 178.964 21.851C179.114 21.911 179.243 21.998 179.351 22.112C179.465 22.22 179.555 22.349 179.621 22.499C179.687 22.649 179.72 22.808 179.72 22.976ZM186.786 30.941C186.072 30.965 185.466 31.022 184.968 31.112C184.47 31.196 184.065 31.31 183.753 31.454C183.441 31.598 183.216 31.769 183.078 31.967C182.94 32.159 182.871 32.375 182.871 32.615C182.871 32.843 182.907 33.041 182.979 33.209C183.057 33.371 183.159 33.506 183.285 33.614C183.417 33.716 183.57 33.791 183.744 33.839C183.918 33.887 184.107 33.911 184.311 33.911C184.581 33.911 184.827 33.884 185.049 33.83C185.277 33.776 185.49 33.701 185.688 33.605C185.886 33.503 186.075 33.38 186.255 33.236C186.435 33.092 186.612 32.927 186.786 32.741V30.941ZM181.638 27.134C182.148 26.648 182.7 26.285 183.294 26.045C183.894 25.805 184.551 25.685 185.265 25.685C185.787 25.685 186.249 25.772 186.651 25.946C187.053 26.114 187.392 26.351 187.668 26.657C187.944 26.963 188.151 27.329 188.289 27.755C188.433 28.181 188.505 28.652 188.505 29.168V35H187.722C187.548 35 187.416 34.973 187.326 34.919C187.236 34.859 187.164 34.751 187.11 34.595L186.921 33.794C186.687 34.01 186.456 34.202 186.228 34.37C186 34.532 185.76 34.673 185.508 34.793C185.262 34.907 184.998 34.994 184.716 35.054C184.434 35.114 184.122 35.144 183.78 35.144C183.42 35.144 183.081 35.096 182.763 35C182.451 34.898 182.178 34.745 181.944 34.541C181.71 34.337 181.524 34.082 181.386 33.776C181.254 33.47 181.188 33.113 181.188 32.705C181.188 32.345 181.284 32 181.476 31.67C181.674 31.334 181.992 31.034 182.43 30.77C182.874 30.506 183.45 30.29 184.158 30.122C184.872 29.954 185.748 29.858 186.786 29.834V29.168C186.786 28.478 186.639 27.962 186.345 27.62C186.051 27.278 185.619 27.107 185.049 27.107C184.665 27.107 184.341 27.155 184.077 27.251C183.819 27.347 183.594 27.455 183.402 27.575C183.216 27.689 183.051 27.794 182.907 27.89C182.769 27.986 182.625 28.034 182.475 28.034C182.355 28.034 182.25 28.001 182.16 27.935C182.076 27.869 182.007 27.791 181.953 27.701L181.638 27.134ZM192.654 21.716V35H190.89V21.716H192.654Z" fill="#8D8798"/>
<path d="M269.243 33.533V35H262.178V33.533H264.878V25.415C264.878 25.127 264.887 24.833 264.905 24.533L262.826 26.288C262.736 26.36 262.643 26.408 262.547 26.432C262.457 26.45 262.37 26.45 262.286 26.432C262.208 26.414 262.136 26.387 262.07 26.351C262.01 26.309 261.962 26.264 261.926 26.216L261.323 25.37L265.229 22.013H266.804V33.533H269.243ZM280.386 28.52C280.386 29.654 280.263 30.635 280.017 31.463C279.777 32.291 279.444 32.978 279.018 33.524C278.592 34.07 278.091 34.475 277.515 34.739C276.939 35.003 276.318 35.135 275.652 35.135C274.986 35.135 274.365 35.003 273.789 34.739C273.213 34.475 272.712 34.07 272.286 33.524C271.866 32.978 271.536 32.291 271.296 31.463C271.056 30.635 270.936 29.654 270.936 28.52C270.936 27.386 271.056 26.405 271.296 25.577C271.536 24.743 271.866 24.056 272.286 23.516C272.712 22.97 273.213 22.565 273.789 22.301C274.365 22.031 274.986 21.896 275.652 21.896C276.318 21.896 276.939 22.031 277.515 22.301C278.091 22.565 278.592 22.97 279.018 23.516C279.444 24.056 279.777 24.743 280.017 25.577C280.263 26.405 280.386 27.386 280.386 28.52ZM278.388 28.52C278.388 27.56 278.31 26.762 278.154 26.126C278.004 25.484 277.803 24.971 277.551 24.587C277.299 24.203 277.008 23.93 276.678 23.768C276.348 23.606 276.006 23.525 275.652 23.525C275.292 23.525 274.947 23.606 274.617 23.768C274.293 23.93 274.005 24.203 273.753 24.587C273.501 24.971 273.3 25.484 273.15 26.126C273 26.762 272.925 27.56 272.925 28.52C272.925 29.48 273 30.281 273.15 30.923C273.3 31.559 273.501 32.069 273.753 32.453C274.005 32.837 274.293 33.11 274.617 33.272C274.947 33.434 275.292 33.515 275.652 33.515C276.006 33.515 276.348 33.434 276.678 33.272C277.008 33.11 277.299 32.837 277.551 32.453C277.803 32.069 278.004 31.559 278.154 30.923C278.31 30.281 278.388 29.48 278.388 28.52ZM282.926 34.991C282.752 34.991 282.593 34.961 282.449 34.901C282.305 34.835 282.179 34.748 282.071 34.64C281.969 34.526 281.888 34.394 281.828 34.244C281.774 34.094 281.747 33.929 281.747 33.749C281.747 33.593 281.774 33.446 281.828 33.308C281.888 33.17 281.969 33.05 282.071 32.948C282.179 32.846 282.305 32.768 282.449 32.714C282.599 32.654 282.761 32.624 282.935 32.624C283.139 32.624 283.319 32.663 283.475 32.741C283.631 32.813 283.76 32.915 283.862 33.047C283.97 33.173 284.048 33.323 284.096 33.497C284.15 33.665 284.177 33.845 284.177 34.037C284.177 34.313 284.135 34.604 284.051 34.91C283.973 35.216 283.853 35.519 283.691 35.819C283.535 36.125 283.34 36.422 283.106 36.71C282.878 36.998 282.617 37.262 282.323 37.502L281.99 37.196C281.942 37.148 281.906 37.103 281.882 37.061C281.864 37.019 281.855 36.965 281.855 36.899C281.855 36.797 281.906 36.701 282.008 36.611C282.068 36.545 282.146 36.458 282.242 36.35C282.338 36.242 282.434 36.119 282.53 35.981C282.626 35.843 282.713 35.69 282.791 35.522C282.875 35.354 282.935 35.177 282.971 34.991H282.926ZM290.233 33.542C290.623 33.542 290.98 33.479 291.304 33.353C291.628 33.221 291.904 33.041 292.132 32.813C292.366 32.585 292.546 32.315 292.672 32.003C292.798 31.691 292.861 31.352 292.861 30.986C292.861 30.59 292.798 30.236 292.672 29.924C292.552 29.606 292.378 29.339 292.15 29.123C291.928 28.907 291.658 28.742 291.34 28.628C291.028 28.508 290.683 28.448 290.305 28.448C289.915 28.448 289.561 28.514 289.243 28.646C288.931 28.778 288.664 28.958 288.442 29.186C288.22 29.414 288.049 29.681 287.929 29.987C287.809 30.293 287.749 30.617 287.749 30.959C287.749 31.343 287.803 31.694 287.911 32.012C288.019 32.33 288.178 32.603 288.388 32.831C288.598 33.053 288.856 33.227 289.162 33.353C289.474 33.479 289.831 33.542 290.233 33.542ZM289.522 26.81C289.426 26.93 289.333 27.044 289.243 27.152C289.159 27.26 289.075 27.368 288.991 27.476C289.267 27.32 289.57 27.197 289.9 27.107C290.23 27.017 290.584 26.972 290.962 26.972C291.466 26.972 291.949 27.056 292.411 27.224C292.873 27.386 293.278 27.632 293.626 27.962C293.98 28.286 294.262 28.691 294.472 29.177C294.682 29.657 294.787 30.212 294.787 30.842C294.787 31.442 294.676 32.003 294.454 32.525C294.238 33.047 293.932 33.503 293.536 33.893C293.14 34.277 292.663 34.583 292.105 34.811C291.553 35.033 290.941 35.144 290.269 35.144C289.597 35.144 288.991 35.036 288.451 34.82C287.911 34.604 287.449 34.301 287.065 33.911C286.687 33.515 286.396 33.041 286.192 32.489C285.988 31.937 285.886 31.322 285.886 30.644C285.886 30.056 286.012 29.441 286.264 28.799C286.516 28.157 286.906 27.482 287.434 26.774L290.62 22.499C290.716 22.373 290.854 22.265 291.034 22.175C291.22 22.085 291.427 22.04 291.655 22.04H293.365L289.522 26.81ZM305.256 22.04V22.895C305.256 23.147 305.229 23.351 305.175 23.507C305.121 23.663 305.067 23.795 305.013 23.903L299.892 34.325C299.802 34.517 299.673 34.679 299.505 34.811C299.343 34.937 299.127 35 298.857 35H297.462L302.682 24.749C302.778 24.563 302.874 24.395 302.97 24.245C303.066 24.095 303.174 23.951 303.294 23.813H296.823C296.703 23.813 296.598 23.768 296.508 23.678C296.418 23.582 296.373 23.474 296.373 23.354V22.04H305.256ZM311.116 33.542C311.506 33.542 311.863 33.479 312.187 33.353C312.511 33.221 312.787 33.041 313.015 32.813C313.249 32.585 313.429 32.315 313.555 32.003C313.681 31.691 313.744 31.352 313.744 30.986C313.744 30.59 313.681 30.236 313.555 29.924C313.435 29.606 313.261 29.339 313.033 29.123C312.811 28.907 312.541 28.742 312.223 28.628C311.911 28.508 311.566 28.448 311.188 28.448C310.798 28.448 310.444 28.514 310.126 28.646C309.814 28.778 309.547 28.958 309.325 29.186C309.103 29.414 308.932 29.681 308.812 29.987C308.692 30.293 308.632 30.617 308.632 30.959C308.632 31.343 308.686 31.694 308.794 32.012C308.902 32.33 309.061 32.603 309.271 32.831C309.481 33.053 309.739 33.227 310.045 33.353C310.357 33.479 310.714 33.542 311.116 33.542ZM310.405 26.81C310.309 26.93 310.216 27.044 310.126 27.152C310.042 27.26 309.958 27.368 309.874 27.476C310.15 27.32 310.453 27.197 310.783 27.107C311.113 27.017 311.467 26.972 311.845 26.972C312.349 26.972 312.832 27.056 313.294 27.224C313.756 27.386 314.161 27.632 314.509 27.962C314.863 28.286 315.145 28.691 315.355 29.177C315.565 29.657 315.67 30.212 315.67 30.842C315.67 31.442 315.559 32.003 315.337 32.525C315.121 33.047 314.815 33.503 314.419 33.893C314.023 34.277 313.546 34.583 312.988 34.811C312.436 35.033 311.824 35.144 311.152 35.144C310.48 35.144 309.874 35.036 309.334 34.82C308.794 34.604 308.332 34.301 307.948 33.911C307.57 33.515 307.279 33.041 307.075 32.489C306.871 31.937 306.769 31.322 306.769 30.644C306.769 30.056 306.895 29.441 307.147 28.799C307.399 28.157 307.789 27.482 308.317 26.774L311.503 22.499C311.599 22.373 311.737 22.265 311.917 22.175C312.103 22.085 312.31 22.04 312.538 22.04H314.248L310.405 26.81Z" fill="#0D0719"/>
<rect x="124" y="68" width="16" height="8" rx="4" fill="#6B1629"/>
<path d="M155.256 72.304C155.748 72.304 156.18 72.244 156.552 72.124C156.93 72.004 157.245 71.836 157.497 71.62C157.749 71.398 157.938 71.137 158.064 70.837C158.19 70.531 158.253 70.195 158.253 69.829C158.253 69.085 158.007 68.524 157.515 68.146C157.029 67.768 156.297 67.579 155.319 67.579H153.51V72.304H155.256ZM161.286 79H159.576C159.234 79 158.985 78.865 158.829 78.595L155.634 74.113C155.532 73.963 155.421 73.858 155.301 73.798C155.181 73.732 155.001 73.699 154.761 73.699H153.51V79H151.593V66.076H155.319C156.153 66.076 156.87 66.163 157.47 66.337C158.076 66.505 158.574 66.748 158.964 67.066C159.36 67.378 159.651 67.756 159.837 68.2C160.029 68.644 160.125 69.142 160.125 69.694C160.125 70.144 160.056 70.567 159.918 70.963C159.78 71.359 159.576 71.716 159.306 72.034C159.042 72.346 158.718 72.616 158.334 72.844C157.95 73.072 157.515 73.246 157.029 73.366C157.269 73.51 157.476 73.711 157.65 73.969L161.286 79ZM168.048 73.411C168.048 73.063 167.997 72.742 167.895 72.448C167.799 72.154 167.655 71.899 167.463 71.683C167.271 71.467 167.037 71.299 166.761 71.179C166.485 71.059 166.167 70.999 165.807 70.999C165.069 70.999 164.487 71.212 164.061 71.638C163.641 72.064 163.374 72.655 163.26 73.411H168.048ZM169.497 77.695C169.281 77.947 169.032 78.166 168.75 78.352C168.468 78.532 168.168 78.679 167.85 78.793C167.532 78.907 167.202 78.991 166.86 79.045C166.524 79.099 166.191 79.126 165.861 79.126C165.231 79.126 164.646 79.021 164.106 78.811C163.572 78.595 163.107 78.283 162.711 77.875C162.321 77.461 162.015 76.951 161.793 76.345C161.577 75.733 161.469 75.031 161.469 74.239C161.469 73.603 161.568 73.012 161.766 72.466C161.964 71.914 162.246 71.434 162.612 71.026C162.984 70.618 163.437 70.297 163.971 70.063C164.505 69.829 165.105 69.712 165.771 69.712C166.329 69.712 166.842 69.805 167.31 69.991C167.784 70.171 168.192 70.435 168.534 70.783C168.876 71.131 169.143 71.56 169.335 72.07C169.533 72.58 169.632 73.162 169.632 73.816C169.632 74.086 169.602 74.269 169.542 74.365C169.482 74.455 169.371 74.5 169.209 74.5H163.215C163.233 75.046 163.311 75.523 163.449 75.931C163.587 76.333 163.776 76.669 164.016 76.939C164.262 77.209 164.553 77.41 164.889 77.542C165.225 77.674 165.6 77.74 166.014 77.74C166.404 77.74 166.74 77.695 167.022 77.605C167.31 77.515 167.556 77.419 167.76 77.317C167.97 77.209 168.144 77.11 168.282 77.02C168.426 76.93 168.552 76.885 168.66 76.885C168.804 76.885 168.915 76.939 168.993 77.047L169.497 77.695ZM173.165 71.125C173.363 70.915 173.57 70.723 173.786 70.549C174.002 70.375 174.23 70.228 174.47 70.108C174.716 69.982 174.977 69.886 175.253 69.82C175.535 69.748 175.835 69.712 176.153 69.712C176.657 69.712 177.098 69.796 177.476 69.964C177.86 70.132 178.181 70.369 178.439 70.675C178.697 70.975 178.892 71.338 179.024 71.764C179.156 72.19 179.222 72.661 179.222 73.177V79H177.458V73.177C177.458 72.523 177.308 72.016 177.008 71.656C176.708 71.29 176.249 71.107 175.631 71.107C175.181 71.107 174.758 71.215 174.362 71.431C173.972 71.641 173.609 71.929 173.273 72.295V79H171.518V69.856H172.571C172.817 69.856 172.97 69.973 173.03 70.207L173.165 71.125ZM187.647 73.411C187.647 73.063 187.596 72.742 187.494 72.448C187.398 72.154 187.254 71.899 187.062 71.683C186.87 71.467 186.636 71.299 186.36 71.179C186.084 71.059 185.766 70.999 185.406 70.999C184.668 70.999 184.086 71.212 183.66 71.638C183.24 72.064 182.973 72.655 182.859 73.411H187.647ZM189.096 77.695C188.88 77.947 188.631 78.166 188.349 78.352C188.067 78.532 187.767 78.679 187.449 78.793C187.131 78.907 186.801 78.991 186.459 79.045C186.123 79.099 185.79 79.126 185.46 79.126C184.83 79.126 184.245 79.021 183.705 78.811C183.171 78.595 182.706 78.283 182.31 77.875C181.92 77.461 181.614 76.951 181.392 76.345C181.176 75.733 181.068 75.031 181.068 74.239C181.068 73.603 181.167 73.012 181.365 72.466C181.563 71.914 181.845 71.434 182.211 71.026C182.583 70.618 183.036 70.297 183.57 70.063C184.104 69.829 184.704 69.712 185.37 69.712C185.928 69.712 186.441 69.805 186.909 69.991C187.383 70.171 187.791 70.435 188.133 70.783C188.475 71.131 188.742 71.56 188.934 72.07C189.132 72.58 189.231 73.162 189.231 73.816C189.231 74.086 189.201 74.269 189.141 74.365C189.081 74.455 188.97 74.5 188.808 74.5H182.814C182.832 75.046 182.91 75.523 183.048 75.931C183.186 76.333 183.375 76.669 183.615 76.939C183.861 77.209 184.152 77.41 184.488 77.542C184.824 77.674 185.199 77.74 185.613 77.74C186.003 77.74 186.339 77.695 186.621 77.605C186.909 77.515 187.155 77.419 187.359 77.317C187.569 77.209 187.743 77.11 187.881 77.02C188.025 76.93 188.151 76.885 188.259 76.885C188.403 76.885 188.514 76.939 188.592 77.047L189.096 77.695ZM203.729 69.856L200.786 79H199.382C199.214 79 199.1 78.889 199.04 78.667L197.114 72.709C197.066 72.559 197.024 72.412 196.988 72.268C196.952 72.118 196.919 71.968 196.889 71.818C196.835 72.13 196.76 72.433 196.664 72.727L194.711 78.667C194.651 78.889 194.522 79 194.324 79H192.992L190.04 69.856H191.426C191.564 69.856 191.678 69.889 191.768 69.955C191.864 70.021 191.927 70.105 191.957 70.207L193.604 75.823C193.658 76.051 193.706 76.273 193.748 76.489C193.79 76.705 193.829 76.921 193.865 77.137C193.919 76.921 193.976 76.705 194.036 76.489C194.102 76.273 194.168 76.051 194.234 75.823L196.061 70.171C196.091 70.069 196.148 69.988 196.232 69.928C196.316 69.862 196.418 69.829 196.538 69.829H197.303C197.435 69.829 197.543 69.862 197.627 69.928C197.717 69.988 197.777 70.069 197.807 70.171L199.589 75.823C199.655 76.051 199.718 76.276 199.778 76.498C199.838 76.714 199.892 76.933 199.94 77.155C199.976 76.939 200.018 76.723 200.066 76.507C200.114 76.285 200.168 76.057 200.228 75.823L201.902 70.207C201.932 70.105 201.992 70.021 202.082 69.955C202.178 69.889 202.286 69.856 202.406 69.856H203.729ZM211.132 73.411C211.132 73.063 211.081 72.742 210.979 72.448C210.883 72.154 210.739 71.899 210.547 71.683C210.355 71.467 210.121 71.299 209.845 71.179C209.569 71.059 209.251 70.999 208.891 70.999C208.153 70.999 207.571 71.212 207.145 71.638C206.725 72.064 206.458 72.655 206.344 73.411H211.132ZM212.581 77.695C212.365 77.947 212.116 78.166 211.834 78.352C211.552 78.532 211.252 78.679 210.934 78.793C210.616 78.907 210.286 78.991 209.944 79.045C209.608 79.099 209.275 79.126 208.945 79.126C208.315 79.126 207.73 79.021 207.19 78.811C206.656 78.595 206.191 78.283 205.795 77.875C205.405 77.461 205.099 76.951 204.877 76.345C204.661 75.733 204.553 75.031 204.553 74.239C204.553 73.603 204.652 73.012 204.85 72.466C205.048 71.914 205.33 71.434 205.696 71.026C206.068 70.618 206.521 70.297 207.055 70.063C207.589 69.829 208.189 69.712 208.855 69.712C209.413 69.712 209.926 69.805 210.394 69.991C210.868 70.171 211.276 70.435 211.618 70.783C211.96 71.131 212.227 71.56 212.419 72.07C212.617 72.58 212.716 73.162 212.716 73.816C212.716 74.086 212.686 74.269 212.626 74.365C212.566 74.455 212.455 74.5 212.293 74.5H206.299C206.317 75.046 206.395 75.523 206.533 75.931C206.671 76.333 206.86 76.669 207.1 76.939C207.346 77.209 207.637 77.41 207.973 77.542C208.309 77.674 208.684 77.74 209.098 77.74C209.488 77.74 209.824 77.695 210.106 77.605C210.394 77.515 210.64 77.419 210.844 77.317C211.054 77.209 211.228 77.11 211.366 77.02C211.51 76.93 211.636 76.885 211.744 76.885C211.888 76.885 211.999 76.939 212.077 77.047L212.581 77.695ZM220.497 72.07C220.209 71.692 219.897 71.428 219.561 71.278C219.231 71.128 218.859 71.053 218.445 71.053C217.641 71.053 217.017 71.344 216.573 71.926C216.135 72.502 215.916 73.345 215.916 74.455C215.916 75.037 215.964 75.535 216.06 75.949C216.162 76.357 216.306 76.693 216.492 76.957C216.684 77.215 216.918 77.407 217.194 77.533C217.47 77.653 217.782 77.713 218.13 77.713C218.64 77.713 219.081 77.599 219.453 77.371C219.825 77.143 220.173 76.822 220.497 76.408V72.07ZM222.261 65.716V79H221.199C220.953 79 220.8 78.883 220.74 78.649L220.587 77.596C220.197 78.058 219.753 78.43 219.255 78.712C218.763 78.988 218.193 79.126 217.545 79.126C217.023 79.126 216.549 79.024 216.123 78.82C215.703 78.616 215.343 78.319 215.043 77.929C214.743 77.533 214.512 77.044 214.35 76.462C214.188 75.88 214.107 75.211 214.107 74.455C214.107 73.777 214.197 73.147 214.377 72.565C214.557 71.983 214.818 71.479 215.16 71.053C215.502 70.627 215.916 70.294 216.402 70.054C216.888 69.808 217.437 69.685 218.049 69.685C218.601 69.685 219.069 69.775 219.453 69.955C219.843 70.135 220.191 70.39 220.497 70.72V65.716H222.261Z" fill="#8D8798"/>
<path d="M269.243 77.533V79H262.178V77.533H264.878V69.415C264.878 69.127 264.887 68.833 264.905 68.533L262.826 70.288C262.736 70.36 262.643 70.408 262.547 70.432C262.457 70.45 262.37 70.45 262.286 70.432C262.208 70.414 262.136 70.387 262.07 70.351C262.01 70.309 261.962 70.264 261.926 70.216L261.323 69.37L265.229 66.013H266.804V77.533H269.243ZM275.661 77.614C276.051 77.614 276.399 77.56 276.705 77.452C277.011 77.338 277.266 77.182 277.47 76.984C277.68 76.78 277.839 76.54 277.947 76.264C278.055 75.988 278.109 75.688 278.109 75.364C278.109 74.968 278.046 74.626 277.92 74.338C277.8 74.05 277.629 73.813 277.407 73.627C277.191 73.435 276.933 73.294 276.633 73.204C276.333 73.108 276.009 73.06 275.661 73.06C275.313 73.06 274.989 73.108 274.689 73.204C274.389 73.294 274.128 73.435 273.906 73.627C273.69 73.813 273.519 74.05 273.393 74.338C273.273 74.626 273.213 74.968 273.213 75.364C273.213 75.688 273.267 75.988 273.375 76.264C273.483 76.54 273.639 76.78 273.843 76.984C274.053 77.182 274.311 77.338 274.617 77.452C274.923 77.56 275.271 77.614 275.661 77.614ZM275.661 67.381C275.307 67.381 274.995 67.435 274.725 67.543C274.461 67.651 274.242 67.795 274.068 67.975C273.894 68.155 273.762 68.368 273.672 68.614C273.588 68.854 273.546 69.109 273.546 69.379C273.546 69.649 273.582 69.913 273.654 70.171C273.732 70.429 273.852 70.66 274.014 70.864C274.182 71.062 274.401 71.221 274.671 71.341C274.941 71.461 275.271 71.521 275.661 71.521C276.051 71.521 276.381 71.461 276.651 71.341C276.921 71.221 277.137 71.062 277.299 70.864C277.467 70.66 277.587 70.429 277.659 70.171C277.737 69.913 277.776 69.649 277.776 69.379C277.776 69.109 277.731 68.854 277.641 68.614C277.557 68.368 277.425 68.155 277.245 67.975C277.071 67.795 276.852 67.651 276.588 67.543C276.324 67.435 276.015 67.381 275.661 67.381ZM277.704 72.241C278.502 72.487 279.099 72.877 279.495 73.411C279.897 73.945 280.098 74.608 280.098 75.4C280.098 75.97 279.99 76.486 279.774 76.948C279.558 77.41 279.255 77.803 278.865 78.127C278.475 78.451 278.007 78.703 277.461 78.883C276.921 79.057 276.321 79.144 275.661 79.144C275.001 79.144 274.398 79.057 273.852 78.883C273.312 78.703 272.847 78.451 272.457 78.127C272.067 77.803 271.764 77.41 271.548 76.948C271.332 76.486 271.224 75.97 271.224 75.4C271.224 74.608 271.422 73.945 271.818 73.411C272.22 72.877 272.82 72.487 273.618 72.241C272.97 71.983 272.481 71.608 272.151 71.116C271.827 70.624 271.665 70.033 271.665 69.343C271.665 68.857 271.761 68.404 271.953 67.984C272.145 67.564 272.415 67.201 272.763 66.895C273.117 66.583 273.54 66.34 274.032 66.166C274.524 65.986 275.067 65.896 275.661 65.896C276.255 65.896 276.795 65.986 277.281 66.166C277.773 66.34 278.193 66.583 278.541 66.895C278.895 67.201 279.168 67.564 279.36 67.984C279.558 68.404 279.657 68.857 279.657 69.343C279.657 70.033 279.492 70.624 279.162 71.116C278.838 71.608 278.352 71.983 277.704 72.241ZM282.926 78.991C282.752 78.991 282.593 78.961 282.449 78.901C282.305 78.835 282.179 78.748 282.071 78.64C281.969 78.526 281.888 78.394 281.828 78.244C281.774 78.094 281.747 77.929 281.747 77.749C281.747 77.593 281.774 77.446 281.828 77.308C281.888 77.17 281.969 77.05 282.071 76.948C282.179 76.846 282.305 76.768 282.449 76.714C282.599 76.654 282.761 76.624 282.935 76.624C283.139 76.624 283.319 76.663 283.475 76.741C283.631 76.813 283.76 76.915 283.862 77.047C283.97 77.173 284.048 77.323 284.096 77.497C284.15 77.665 284.177 77.845 284.177 78.037C284.177 78.313 284.135 78.604 284.051 78.91C283.973 79.216 283.853 79.519 283.691 79.819C283.535 80.125 283.34 80.422 283.106 80.71C282.878 80.998 282.617 81.262 282.323 81.502L281.99 81.196C281.942 81.148 281.906 81.103 281.882 81.061C281.864 81.019 281.855 80.965 281.855 80.899C281.855 80.797 281.906 80.701 282.008 80.611C282.068 80.545 282.146 80.458 282.242 80.35C282.338 80.242 282.434 80.119 282.53 79.981C282.626 79.843 282.713 79.69 282.791 79.522C282.875 79.354 282.935 79.177 282.971 78.991H282.926ZM286.093 69.604C286.183 68.992 286.351 68.455 286.597 67.993C286.849 67.531 287.164 67.147 287.542 66.841C287.92 66.529 288.352 66.295 288.838 66.139C289.33 65.977 289.861 65.896 290.431 65.896C291.007 65.896 291.529 65.98 291.997 66.148C292.471 66.31 292.876 66.538 293.212 66.832C293.554 67.126 293.815 67.477 293.995 67.885C294.181 68.293 294.274 68.74 294.274 69.226C294.274 69.64 294.223 70.006 294.121 70.324C294.025 70.636 293.884 70.912 293.698 71.152C293.518 71.392 293.296 71.593 293.032 71.755C292.768 71.917 292.471 72.052 292.141 72.16C292.945 72.394 293.548 72.769 293.95 73.285C294.352 73.795 294.553 74.437 294.553 75.211C294.553 75.835 294.436 76.39 294.202 76.876C293.968 77.362 293.65 77.773 293.248 78.109C292.852 78.445 292.387 78.703 291.853 78.883C291.325 79.057 290.764 79.144 290.17 79.144C289.504 79.144 288.928 79.066 288.442 78.91C287.956 78.748 287.536 78.52 287.182 78.226C286.834 77.926 286.543 77.566 286.309 77.146C286.075 76.726 285.877 76.255 285.715 75.733L286.552 75.382C286.774 75.286 286.984 75.259 287.182 75.301C287.386 75.343 287.533 75.454 287.623 75.634C287.719 75.826 287.827 76.033 287.947 76.255C288.067 76.471 288.22 76.672 288.406 76.858C288.598 77.038 288.832 77.191 289.108 77.317C289.39 77.437 289.735 77.497 290.143 77.497C290.557 77.497 290.917 77.431 291.223 77.299C291.535 77.161 291.793 76.987 291.997 76.777C292.207 76.561 292.363 76.321 292.465 76.057C292.567 75.793 292.618 75.532 292.618 75.274C292.618 74.95 292.579 74.653 292.501 74.383C292.423 74.107 292.27 73.873 292.042 73.681C291.82 73.489 291.502 73.339 291.088 73.231C290.68 73.117 290.143 73.06 289.477 73.06V71.665C290.023 71.659 290.482 71.605 290.854 71.503C291.232 71.395 291.532 71.251 291.754 71.071C291.982 70.885 292.144 70.663 292.24 70.405C292.342 70.147 292.393 69.865 292.393 69.559C292.393 69.229 292.342 68.938 292.24 68.686C292.138 68.434 291.994 68.224 291.808 68.056C291.628 67.882 291.412 67.753 291.16 67.669C290.908 67.585 290.629 67.543 290.323 67.543C290.029 67.543 289.756 67.585 289.504 67.669C289.258 67.753 289.036 67.87 288.838 68.02C288.646 68.17 288.484 68.35 288.352 68.56C288.22 68.764 288.124 68.989 288.064 69.235C287.98 69.481 287.866 69.646 287.722 69.73C287.584 69.814 287.38 69.832 287.11 69.784L286.093 69.604ZM305.256 66.04V66.895C305.256 67.147 305.229 67.351 305.175 67.507C305.121 67.663 305.067 67.795 305.013 67.903L299.892 78.325C299.802 78.517 299.673 78.679 299.505 78.811C299.343 78.937 299.127 79 298.857 79H297.462L302.682 68.749C302.778 68.563 302.874 68.395 302.97 68.245C303.066 68.095 303.174 67.951 303.294 67.813H296.823C296.703 67.813 296.598 67.768 296.508 67.678C296.418 67.582 296.373 67.474 296.373 67.354V66.04H305.256ZM311.116 77.542C311.506 77.542 311.863 77.479 312.187 77.353C312.511 77.221 312.787 77.041 313.015 76.813C313.249 76.585 313.429 76.315 313.555 76.003C313.681 75.691 313.744 75.352 313.744 74.986C313.744 74.59 313.681 74.236 313.555 73.924C313.435 73.606 313.261 73.339 313.033 73.123C312.811 72.907 312.541 72.742 312.223 72.628C311.911 72.508 311.566 72.448 311.188 72.448C310.798 72.448 310.444 72.514 310.126 72.646C309.814 72.778 309.547 72.958 309.325 73.186C309.103 73.414 308.932 73.681 308.812 73.987C308.692 74.293 308.632 74.617 308.632 74.959C308.632 75.343 308.686 75.694 308.794 76.012C308.902 76.33 309.061 76.603 309.271 76.831C309.481 77.053 309.739 77.227 310.045 77.353C310.357 77.479 310.714 77.542 311.116 77.542ZM310.405 70.81C310.309 70.93 310.216 71.044 310.126 71.152C310.042 71.26 309.958 71.368 309.874 71.476C310.15 71.32 310.453 71.197 310.783 71.107C311.113 71.017 311.467 70.972 311.845 70.972C312.349 70.972 312.832 71.056 313.294 71.224C313.756 71.386 314.161 71.632 314.509 71.962C314.863 72.286 315.145 72.691 315.355 73.177C315.565 73.657 315.67 74.212 315.67 74.842C315.67 75.442 315.559 76.003 315.337 76.525C315.121 77.047 314.815 77.503 314.419 77.893C314.023 78.277 313.546 78.583 312.988 78.811C312.436 79.033 311.824 79.144 311.152 79.144C310.48 79.144 309.874 79.036 309.334 78.82C308.794 78.604 308.332 78.301 307.948 77.911C307.57 77.515 307.279 77.041 307.075 76.489C306.871 75.937 306.769 75.322 306.769 74.644C306.769 74.056 306.895 73.441 307.147 72.799C307.399 72.157 307.789 71.482 308.317 70.774L311.503 66.499C311.599 66.373 311.737 66.265 311.917 66.175C312.103 66.085 312.31 66.04 312.538 66.04H314.248L310.405 70.81Z" fill="#0D0719"/>
</svg>
